<?xml version="1.0" encoding="UTF-8"?>
<!DOCTYPE svg PUBLIC "-//W3C//DTD SVG 1.1//EN" "http://www.w3.org/Graphics/SVG/1.1/DTD/svg11.dtd">
<!-- Creator: CorelDRAW 2021 (64-Bit) -->
<svg xmlns="http://www.w3.org/2000/svg" xml:space="preserve" width="0.865571in" height="0.865571in" version="1.1" style="shape-rendering:geometricPrecision; text-rendering:geometricPrecision; image-rendering:optimizeQuality; fill-rule:evenodd; clip-rule:evenodd"
viewBox="0 0 256.36 256.36"
 xmlns:xlink="http://www.w3.org/1999/xlink"
 xmlns:xodm="http://www.corel.com/coreldraw/odm/2003">
 <defs>
  <style type="text/css">
   <![CDATA[
    .fil1 {fill:#009FB7}
    .fil2 {fill:#009FB7}
    .fil0 {fill:#D0EEF5}
    .fil3 {fill:#FB92B2}
   ]]>
  </style>
 </defs>
 <g id="Capa_x0020_1">
  <metadata id="CorelCorpID_0Corel-Layer"/>
  <circle class="fil0" cx="128.18" cy="128.18" r="128.18"/>
  <g id="_2126698532128">
   <path class="fil1" d="M69.13 136.6l-0.08 0.72 -0.29 0.54c0,15.11 0,30.22 0,45.33 0,7.65 0,15.29 0,22.94 0,8.17 -1,13.54 6.59,15.57 3.63,0.49 90.36,0.14 97.13,0.17 9.48,0.04 12.82,-1.68 12.79,-11.24 -0.03,-11.04 -0.53,-70.21 0.34,-72.68 -0.69,-0.51 -0.38,0.8 -0.63,-1.08 -1.09,-2.19 -1.56,-2.46 -2.67,-3.86 -4.29,-2.14 -8.76,-1.5 -14.26,-1.54l-23.56 0 -34.9 0 -23.6 -0.03 -11.47 0.2c-4.06,2.14 -2.79,1.58 -5.41,4.97l0.01 -0.01zm58.04 29.23c5.99,0 10.85,4.86 10.85,10.85 0,5.99 -4.86,10.85 -10.85,10.85 -5.99,0 -10.85,-4.86 -10.85,-10.85 0,-5.99 4.86,-10.85 10.85,-10.85z"/>
   <path class="fil2" d="M115.82 79.88c-2.35,0.82 -4.44,1.55 -6.74,2.48 -1.71,0.99 -2.99,1.48 -4.79,2.62 -7.7,4.84 -8.93,8.56 -11.39,10.62 -0.6,1.8 -2.34,4.15 -3.33,6.3 -1.05,2.28 -1.51,4.45 -2.41,6.59l-1 6.44 -0.04 6.64 -0.09 7.51 23.59 0.03 -0.01 -1.71 0 -5.59 0.18 -6.87c1.47,-5.88 4.71,-10.02 9.37,-12.27 4.33,-2.08 13.44,-2.57 16.71,0.62 2.17,1.08 4.76,3.08 5.6,5.23 1.65,1.35 2.89,4.7 2.68,7.16 0.46,0.95 0.21,0.16 0.36,1.41l0.02 5.15c0,2.29 0.05,4.59 0,6.87l23.56 0c-0.46,-4.97 0.29,-10.11 -0.23,-15 -0.57,-5.42 -1.86,-7.61 -3.09,-12.07 -1.59,-2.43 -2.32,-4.59 -4.01,-6.82 -6.25,-8.21 -9.26,-9.21 -17.73,-13.85 -2.49,-0.58 -4.13,-1.4 -6.95,-2.01 -8.03,-1.53 -12.48,-1.25 -20.24,0.52l-0.02 -0.02z"/>
   <path class="fil3" d="M183.72 54.57c-0.71,0.89 -0.67,0.89 -1.62,1.46 -1.47,1.33 -3.76,3.37 -5.48,4.57l-5.04 4.32c-0.94,0.71 -0.98,0.73 -2.01,1.6 -2.18,1.84 -5.25,3.4 -5.96,7.05 -0.78,4.01 1.68,7.27 4.66,8.13 4.36,1.26 7.26,-1.73 9.42,-3.45l14.51 -12.01c2.01,-1.65 5.22,-3.81 4.74,-7.86 -0.45,-3.87 -3.21,-5.95 -6.95,-6.5 -1.59,0.09 -2.58,0.29 -3.63,0.87 -1.67,0.93 -1.01,1.21 -2.66,1.83l0.02 -0.01z"/>
   <path class="fil3" d="M57.72 56.58c-0.95,2.55 -0.54,4.85 0.85,6.69l9.71 8.26c0.62,0.47 0.7,0.48 1.29,0.97l3.71 3.2c1.36,0.93 1.46,0.63 2.43,2.38 2.64,0.97 3.79,4.07 8.17,4 3.85,-0.07 5.85,-2.59 6.75,-5.92 0.19,-4.67 -1.57,-5.91 -3.86,-7.84 -2.13,-1.8 -3.89,-3.24 -6.14,-5.08 -4.23,-3.44 -8.53,-6.86 -12.69,-10.38 -2.28,-1.25 -2.81,-0.81 -5.52,-1 -2.28,1.59 -3.52,1.76 -4.71,4.72l0 -0z"/>
   <path class="fil3" d="M122.66 27.8c-0.29,0.27 -0.96,0.95 -1.24,1.24 -1.04,1.96 -1.56,3.77 -1.56,6.66l0 6.74 0 6.74 0 6.74c0,3.68 0.04,3.98 1.56,6.66l1.24 1.24c2.31,1.32 3.78,1.71 6.66,1.02 2.58,-0.91 1.69,-1.29 3.38,-2.24 2.4,-4.23 1.57,-11.39 1.56,-17 -0.01,-5.52 0.79,-12.39 -1.56,-16.55 -0.93,-0.98 -1.69,-1.52 -3.19,-2.38 -3.61,-0.62 -4.05,-0.44 -6.86,1.15l0 -0.02z"/>
   <path class="fil3" d="M183.23 107.18c-1.03,1.23 -1.17,1.16 -2.1,2.69 -1.34,3.01 -0.75,3.71 -0.1,6.79 0.96,0.8 1.61,1.76 2.35,2.47 4.68,2.05 11.12,1.21 16.54,1.21 6.36,0 11.64,0.69 16.72,-1.35 0.56,-0.93 1.49,-2.18 2.26,-2.74 0.08,-2.41 0.24,-3.22 0,-6.02 -0.7,-0.68 -1.63,-1.7 -2.01,-2.43 -1.94,-1.18 -3.74,-1.82 -6.64,-1.79l-6.74 0 -6.74 0 -6.74 0c-3.61,-0.04 -4.01,0.26 -6.79,1.16l0 0.01z"/>
   <path class="fil3" d="M68.54 120.04c2.67,-1.28 4.98,-2.98 4.92,-7.02 -0.06,-3.79 -2.14,-5.25 -4.86,-6.64l-6.74 -0.36 -6.74 0 -6.74 0 -6.74 0c-9.23,1.5 -8.71,13.19 -0.44,14.24 3.52,0.45 24.15,0.39 27.36,-0.23l-0.01 0.01z"/>
  </g>
  <ellipse class="fil3" cx="127.12" cy="176.65" rx="11.28" ry="11.17"/>
 </g>
</svg>
